<?xml version="1.0" encoding="UTF-8" standalone="no"?>
<!-- Created with Inkscape (http://www.inkscape.org/) -->

<svg
   xmlns:dc="http://purl.org/dc/elements/1.1/"
   xmlns:cc="http://creativecommons.org/ns#"
   xmlns:rdf="http://www.w3.org/1999/02/22-rdf-syntax-ns#"
   xmlns:svg="http://www.w3.org/2000/svg"
   xmlns="http://www.w3.org/2000/svg"
   xmlns:sodipodi="http://sodipodi.sourceforge.net/DTD/sodipodi-0.dtd"
   xmlns:inkscape="http://www.inkscape.org/namespaces/inkscape"
   version="1.1"
   width="711"
   height="711"
   id="svg2"
   xml:space="preserve"
   inkscape:version="0.48.4 r9939"
   sodipodi:docname="Zed.svg"><sodipodi:namedview
     pagecolor="#ffffff"
     bordercolor="#666666"
     borderopacity="1"
     objecttolerance="10"
     gridtolerance="10"
     guidetolerance="10"
     inkscape:pageopacity="0"
     inkscape:pageshadow="2"
     inkscape:window-width="1916"
     inkscape:window-height="1175"
     id="namedview3127"
     showgrid="false"
     inkscape:zoom="0.65996634"
     inkscape:cx="-92.595954"
     inkscape:cy="92.541505"
     inkscape:window-x="1920"
     inkscape:window-y="0"
     inkscape:window-maximized="1"
     inkscape:current-layer="g24"
     fit-margin-top="0"
     fit-margin-left="0"
     fit-margin-right="0"
     fit-margin-bottom="0" /><metadata
     id="metadata8"><rdf:RDF><cc:Work
         rdf:about=""><dc:format>image/svg+xml</dc:format><dc:type
           rdf:resource="http://purl.org/dc/dcmitype/StillImage" /></cc:Work></rdf:RDF></metadata><defs
     id="defs6"><clipPath
       id="clipPath26"><path
         d="M 0,576 1152,576 1152,0 0,0 0,576 z"
         inkscape:connector-curvature="0"
         id="path28" /></clipPath><clipPath
       id="clipPath62"><path
         d="m 288.986,409.667 249.211,0 0,-227.238 -249.211,0 0,227.238 z"
         inkscape:connector-curvature="0"
         id="path64" /></clipPath><clipPath
       id="clipPath66"><path
         d="m 480.427,313.947 c 0,-52.864 -42.856,-95.72 -95.72,-95.72 -52.866,0 -95.721,42.856 -95.721,95.72 0,52.865 42.855,95.72 95.721,95.72 52.864,0 95.72,-42.855 95.72,-95.72"
         inkscape:connector-curvature="0"
         id="path68" /></clipPath></defs><g
     transform="matrix(1.25,0,0,-1.25,-4.1142782,716.24198)"
     id="g10"><g
       id="g24"
       clip-path="url(#clipPath26)"><path
         sodipodi:type="arc"
         style="fill:#4d4d4d;fill-rule:evenodd;stroke:none"
         id="path3156"
         sodipodi:cx="534.87579"
         sodipodi:cy="387.02847"
         sodipodi:rx="138.64343"
         sodipodi:ry="132.20372"
         d="m 673.51923,387.02847 a 138.64343,132.20372 0 1 1 -277.28687,0 138.64343,132.20372 0 1 1 277.28687,0 z"
         transform="matrix(2.0469496,0,0,-2.1355455,-807.20366,1115.7089)" /><g
         id="g46"
         transform="matrix(2.6828041,0,0,2.6988807,23.789319,382.24907)"><path
           style="fill:#00affc;fill-opacity:1;fill-rule:nonzero;stroke:none"
           id="path48"
           inkscape:connector-curvature="0"
           d="m 0,0 124.689,17.182 c 0,0 14.927,-38.072 78.807,-40.563 -0.277,3.66 -0.696,7.282 -1.275,10.85 -4.323,20.15 -14.405,38.142 -28.464,52.21 C 154.691,58.732 128.432,70.496 99.352,70.498 70.273,70.496 44.012,58.732 24.949,39.679 13.876,28.599 5.271,15.084 0,0" /></g><g
         id="g50"
         transform="matrix(2.715189,0,0,2.6988807,355.15341,130.86561)"><path
           style="fill:#e2e2e2;fill-opacity:1;fill-rule:nonzero;stroke:none"
           id="path52"
           inkscape:connector-curvature="0"
           d="M 0,0 -121.37194,18.344 C -116.03894,5.409 -108.959,-6.231 -99.213,-15.983 -80.15,-35.036 -53.888,-46.8 -24.81,-46.802 4.271,-46.8 30.53,-35.036 49.595,-15.983 59.855,-5.717 67.996,6.641 73.33,20.4 75.696,27.56 77.418,35.01 78.48,42.67 66.139,42.066 16.585,37.318 0,0"
           sodipodi:nodetypes="cccccccc" /></g><g
         id="g54"
         transform="matrix(2.6786995,0,0,2.6988807,291.54384,334.60735)"><path
           style="fill:#e2e2e2;fill-opacity:1;fill-rule:nonzero;stroke:none"
           id="path56"
           inkscape:connector-curvature="0"
           d="m 0,0 c -10.361,0 -19.007,-8.646 -19.007,-19.009 0,-10.361 8.646,-19.009 19.007,-19.009 9.098,0 16.868,6.667 18.63,15.307 l 85.62,-0.51 c 0.161,2.617 0.269,5.25 0.269,7.908 0,0.349 -0.019,0.694 -0.022,1.044 L 18.501,-14.78 C 16.535,-6.398 8.91,0 0,0" /></g><g
         style="fill:#00e4ff;fill-opacity:1"
         id="g60"
         transform="translate(0.57258978,0.35900115)" /><g
         id="g72"
         clip-path="url(#clipPath62)"
         style="fill:#00e4ff;fill-opacity:1"
         transform="matrix(2.7215076,0,0,2.7082469,-890.59797,-491.36116)"><g
           id="g74"
           style="fill:#00e4ff;fill-opacity:1"><g
             id="g76"
             clip-path="url(#clipPath66)"
             style="fill:#00e4ff;fill-opacity:1"><g
               id="g78"
               transform="translate(334.3271,322.3745)"
               style="fill:#00e4ff;fill-opacity:1"><path
                 style="fill:#00e4ff;fill-opacity:1;fill-rule:nonzero;stroke:none"
                 id="path80"
                 inkscape:connector-curvature="0"
                 d="m 0,0 124.689,17.182 c 0,0 14.927,-38.072 78.807,-40.563 -0.277,3.66 -0.696,7.282 -1.275,10.85 -4.323,20.15 -14.405,38.141 -28.464,52.21 C 154.691,58.732 128.432,70.496 99.352,70.498 70.273,70.496 44.012,58.732 24.949,39.679 13.876,28.599 5.271,15.084 0,0" /></g><g
               id="g82"
               transform="translate(458.4888,229.2314)"
               style="fill:#00e4ff;fill-opacity:1"><path
                 style="fill:#f9f9f9;fill-opacity:1;fill-rule:nonzero;stroke:none"
                 id="path84"
                 inkscape:connector-curvature="0"
                 d="M 0,0 -121.67421,18.493999 C -116.34121,5.5589988 -108.959,-6.231 -99.213,-15.983 -80.15,-35.036 -53.888,-46.8 -24.81,-46.803 4.271,-46.8 30.53,-35.036 49.595,-15.983 59.855,-5.717 67.996,6.641 73.33,20.4 75.696,27.56 77.418,35.01 78.48,42.67 66.139,42.065 16.585,37.317 0,0"
                 sodipodi:nodetypes="cccccccc" /></g><g
               id="g86"
               transform="translate(433.6787,304.7217)"
               style="fill:#00e4ff;fill-opacity:1"><path
                 style="fill:#f9f9f9;fill-opacity:1;fill-rule:nonzero;stroke:none"
                 id="path88"
                 inkscape:connector-curvature="0"
                 d="m 0,0 c -10.361,0 -19.007,-8.646 -19.007,-19.009 0,-10.361 8.646,-19.008 19.007,-19.008 9.098,0 17.39926,7.199862 19.16126,15.839862 l 85.08874,-0.509 c 0.161,2.616 0.269,4.716138 0.269,7.374138 0,0.348 -0.019,0.907545 -0.022,1.256545 L 19.351016,-14.458683 C 17.385016,-6.0776831 8.91,0 0,0"
                 sodipodi:nodetypes="cssccsccc" /></g></g></g></g></g></g></svg>
